<?xml version="1.0" encoding="utf-8"?>
<!-- Generator: Adobe Illustrator 19.2.1, SVG Export Plug-In . SVG Version: 6.00 Build 0)  -->
<svg version="1.1" id="Layer_1" xmlns="http://www.w3.org/2000/svg" xmlns:xlink="http://www.w3.org/1999/xlink" x="0px" y="0px"
	 viewBox="0 0 196.3 69.1" style="enable-background:new 0 0 196.3 69.1;" xml:space="preserve">
<style type="text/css">
	.st0{fill:#FFFFFF;}
</style>
<g>
	<g>
		<path class="st0" d="M39.9,43.8c0,0.2,0,0.6,0,0.6c0,0.9,0.1,2,0.5,3c0.9,2,3,4.7,8.6,6.3c-0.2,0.3-1.2,2.5-1.3,2.7
			c-3.2-0.6-6.7-2.6-8.2-3.9c-1-0.9-1.5-1.4-1.7-1.7l-0.1-0.2l-0.1,0.2c-0.2,0.3-0.7,0.8-1.7,1.7c-1.5,1.3-5,3.3-8.2,3.9
			c-0.1-0.2-1.2-2.4-1.3-2.7c5.6-1.6,7.8-4.3,8.6-6.3c0.5-1.1,0.5-2.2,0.5-3c0,0,0-0.4,0-0.6C35.9,43.8,39.9,43.8,39.9,43.8z"/>
		<path class="st0" d="M49.7,62.4c0,0.3,0,2.6,0,2.9c-0.4,0-22.6,0-23,0c0-0.3,0-2.6,0-2.9C27.1,62.4,49.6,62.4,49.7,62.4z"/>
		<path class="st0" d="M165.1,57.9c0,0.3,0,8.3,0,8.3c0,0.7-0.4,1.8-2,1.8h-13.6c-1.6,0-2-1.1-2-1.8c0,0,0-8,0-8.3
			c0.3,0,3.5,0,3.8,0c0,0.3,0,2,0,2h10c0,0,0-1.7,0-2C161.6,57.9,164.8,57.9,165.1,57.9z M151.3,62.7v2.4h10v-2.4H151.3z"/>
		<path class="st0" d="M165.1,43.3c0,0.3,0,12,0,12.4c-0.3,0-3.5,0-3.8,0c0-0.3,0-5.5,0-5.5H158v1.9c0,1.7-1.3,3-3,3h-9
			c-1.7,0-3-1.3-3-3c0,0,0-8,0-8.4c0.3,0,3.5,0,3.8,0c0,0.3,0,2.5,0,2.5h7.4c0,0,0-2.2,0-2.5c0.3,0,3.5,0,3.8,0c0,0.3,0,3.7,0,3.7
			h3.3c0,0,0-3.8,0-4.2C161.6,43.3,164.7,43.3,165.1,43.3z M154,49.1h-7.3v3.2h7.4v-3.2H154z"/>
		<path class="st0" d="M9.1,56.7c0,0.3,0,5.7,0,5.7s12.3,0,12.7,0c0,0.3,0,2.5,0,2.8c-0.4,0-21.5,0-21.8,0c0-0.3,0-2.5,0-2.8
			c0.3,0,5.2,0,5.2,0s0-5.3,0-5.7C5.5,56.7,9.1,56.7,9.1,56.7z"/>
		<path class="st0" d="M18.1,44.1c1.3,0,2,0.6,2,1.8c0,0,0,11.3,0,11.6c-0.3,0-3.9,0-4.2,0c0-0.3,0-6.6,0-6.6s-2,2.4-2.1,2.6
			c-0.2,0-12,0-12.3,0c0-0.3,0-2.6,0-2.9c0.4,0,14.4,0,14.4,0v-3.7c0,0-14.3,0-14.6,0c0-0.3,0-2.6,0-2.9
			C1.6,44.1,18.1,44.1,18.1,44.1z"/>
		<path class="st0" d="M72,59.2c1.3,0,2,0.6,2,1.8c0,0,0,6.8,0,7.1c-0.3,0-3.7,0-4,0c0-0.3,0-6.1,0-6.1s-13.9,0-14.2,0
			c0-0.3,0-2.5,0-2.8C56.1,59.2,72,59.2,72,59.2z"/>
		<path class="st0" d="M73.8,43.3c0,0.3,0,3.9,0,3.9s3.3,0,3.6,0c0,0.3,0,2.6,0,3c-0.3,0-3.6,0-3.6,0s0,6.8,0,7.2c-0.3,0-3.7,0-4,0
			c0-0.3,0-3.8,0-3.8s-1.9,2.4-2,2.5c-0.2,0-12.5,0-12.5,0c-1.8,0-2-1.2-2-1.7c0,0,0-10.1,0-10.5c0.3,0,12.7,0,13.1,0
			c0,0.3,0,2.7,0,3c-0.3,0-9.1,0-9.1,0v6.4h12.5c0,0,0-9.5,0-9.8C70.1,43.3,73.8,43.3,73.8,43.3z"/>
		<path class="st0" d="M178.9,59c0,0.3,0,6.1,0,6.1s14.6,0,14.9,0c0,0.3,0,2.5,0,2.8c-0.4,0-15.8,0-15.8,0c-2.1,0-3.1-0.8-3.1-2.5
			c0,0,0-5.5,0-6.4C175.2,59,178.6,59,178.9,59z"/>
		<path class="st0" d="M171,49.1c0-3.5,3.3-6.4,7.3-6.4s7.2,2.9,7.3,6.5c0,3.6-3.3,6.5-7.3,6.5C174.2,55.6,171,52.7,171,49.1z
			 M174.8,49.1c0,1.9,1.6,3.4,3.5,3.4s3.5-1.5,3.5-3.4s-1.6-3.4-3.5-3.4C176.3,45.7,174.8,47.2,174.8,49.1z"/>
		<path class="st0" d="M193.4,43.3c0,0.3,0,13.5,0,13.8c-0.3,0-3.6,0-4,0c0-0.3,0-13.5,0-13.8C189.8,43.3,193.1,43.3,193.4,43.3z"/>
		<path class="st0" d="M88.9,62.7c0-3.4,3.6-6.2,8-6.2s8,2.8,8,6.3s-3.6,6.3-8,6.3C92.5,69,88.9,66.2,88.9,62.7z M92.9,62.7
			c0,1.9,1.8,3.4,4,3.4s4-1.5,4-3.4s-1.8-3.4-4-3.4C94.7,59.3,92.9,60.9,92.9,62.7z"/>
		<path class="st0" d="M104.9,43.3c0,0.3,0,3.9,0,3.9s2.9,0,3.3,0c0,0.3,0,2.6,0,3c-0.3,0-3.3,0-3.3,0s0,5,0,5.3c-0.3,0-3.5,0-3.8,0
			c0-0.3,0-11.8,0-12.2C101.4,43.3,104.6,43.3,104.9,43.3z"/>
		<path class="st0" d="M92.6,43.4c0,0.2,0,0.4,0,0.4c0,4.1,2.8,7.6,7.1,8.6c-0.2,0.3-1.2,2.5-1.3,2.7c-3.1-0.8-6-2.7-7.6-5
			c0,0-0.1,0-0.1,0.1c-0.1,0-0.1-0.1-0.1-0.1c-1.5,2.2-4.4,4.1-7.6,5c-0.1-0.2-1.2-2.4-1.3-2.7c4.2-1.1,7.1-4.5,7.1-8.6
			c0,0,0-0.2,0-0.4C88.9,43.4,92.2,43.4,92.6,43.4z"/>
		<path class="st0" d="M118.8,62.7c0-3.4,3.6-6.2,8-6.2c4.4,0,8,2.8,8,6.3s-3.6,6.3-8,6.3C122.4,69,118.8,66.2,118.8,62.7z
			 M122.9,62.7c0,1.9,1.8,3.4,4,3.4s4-1.5,4-3.4s-1.8-3.4-4-3.4C124.6,59.3,122.9,60.9,122.9,62.7z"/>
		<path class="st0" d="M134.9,43.3c0,0.3,0,3.9,0,3.9s2.9,0,3.3,0c0,0.3,0,2.6,0,3c-0.3,0-3.3,0-3.3,0s0,5.3,0,5.7
			c-0.3,0-3.5,0-3.8,0c0-0.3,0-12.2,0-12.5C131.4,43.3,134.5,43.3,134.9,43.3z"/>
		<path class="st0" d="M127.7,43.8c0,0.3,0,2.5,0,2.8c-0.3,0-5.3,0-5.3,0l0.1,0.2c0.9,2.7,3.3,4.7,6.4,5.7c-0.1,0.3-1.2,2.5-1.3,2.7
			c-2.9-0.8-5.6-2.5-6.8-4.4l-0.2-0.2l-0.2,0.2c-1.2,1.9-3.9,3.6-6.8,4.4c-0.1-0.2-1.2-2.4-1.3-2.7c3.2-0.9,5.6-3,6.4-5.7l0.1-0.2
			c0,0-4.9,0-5.3,0c0-0.3,0-2.5,0-2.8C114,43.8,127.4,43.8,127.7,43.8z"/>
	</g>
	<g>
		<polygon class="st0" points="29.8,0.1 20,0.1 8.1,11 8.1,0 0.5,0 0.5,29.6 8.1,29.6 8.1,17 20.3,29.6 29.9,29.6 14.8,13.9 		"/>
		<path class="st0" d="M157.7,4.9c-0.8-3.6-3.7-4.8-6.7-4.8h-6.1c-3,0-5.8,1.4-6.7,4.8L132,29.6h8.1l2.9-11.4l3.3,4.7h7.8l1.7,6.7
			h8.1L157.7,4.9z M143.2,17.4l2.9-11.6h3.7l2.9,11.6H143.2z"/>
		<path class="st0" d="M52.5,24H39.6V5.8h12.9V24z M54.2,29.7c3.3,0,6-2.7,6-6V6.1c0-3.3-2.7-6-6-6H37.9c-3.3,0-6,2.7-6,6v17.6
			c0,3.3,2.7,6,6,6H54.2z"/>
		<path class="st0" d="M66.7,13.4l7.8,6.1V5.8h17.1l4.9-5.7H72.7c-3.3,0-6,2.7-6,6V13.4z"/>
		<path class="st0" d="M94.8,16.3L87,10.2v13.7H69.9L65,29.6h23.8c3.3,0,6-2.7,6-6V16.3z"/>
		<path class="st0" d="M186.2,24h-11.3V5.8h11.3V24z M193.9,20.1v-14c0-3.3-2.7-6-6-6h-14.7c-3.3,0-6,2.7-6,6v17.6c0,3.3,2.7,6,6,6
			h23.1V24h-7.8L193.9,20.1L193.9,20.1z"/>
		<path class="st0" d="M120.6,24h-11.5V5.8h11.5V24z M101.4,29.7h20.9c3.3,0,6-2.7,6-6V6.1c0-3.3-2.7-6-6-6h-20.9V29.7z"/>
	</g>
</g>
</svg>
